<svg width="22" height="37" viewBox="0 0 22 37" fill="none" xmlns="http://www.w3.org/2000/svg">
<path d="M20.4504 35.3341C20.7517 35.0334 20.9908 34.6763 21.1538 34.2831C21.3169 33.8899 21.4009 33.4685 21.4009 33.0428C21.4009 32.6172 21.3169 32.1957 21.1538 31.8025C20.9908 31.4094 20.7517 31.0522 20.4504 30.7516L7.84044 18.1416L20.4504 5.53156C21.0581 4.92388 21.3995 4.0997 21.3995 3.24031C21.3995 2.38093 21.0581 1.55673 20.4504 0.949057C19.8428 0.34138 19.0186 -4.29581e-06 18.1592 -4.37094e-06C17.2998 -4.44607e-06 16.4756 0.34138 15.8679 0.949057L0.950435 15.8666C0.649148 16.1672 0.410118 16.5244 0.247028 16.9175C0.0839387 17.3107 -6.41254e-06 17.7322 -6.44975e-06 18.1578C-6.48696e-06 18.5835 0.0839385 19.0049 0.247028 19.3981C0.410118 19.7913 0.649148 20.1484 0.950434 20.4491L15.8679 35.3666C17.1029 36.6016 19.1829 36.6016 20.4504 35.3341Z" fill="white"/>
</svg>
